<svg width="50" height="22" viewBox="0 0 50 22" fill="none" xmlns="http://www.w3.org/2000/svg">
<path d="M0 0H50V18C50 20.2091 48.2091 22 46 22H4C1.79086 22 0 20.2091 0 18V0Z" fill="#D9D9D9"/>
<path d="M16.875 7.25C16.875 6.55964 17.4346 6 18.125 6V6C18.8154 6 19.375 6.55964 19.375 7.25V22H16.875V7.25Z" fill="#BBBEC3"/>
<path d="M23.75 7.25C23.75 6.55964 24.3096 6 25 6V6C25.6904 6 26.25 6.55964 26.25 7.25V22H23.75V7.25Z" fill="#BBBEC3"/>
<path d="M30.625 7.25C30.625 6.55964 31.1846 6 31.875 6V6C32.5654 6 33.125 6.55964 33.125 7.25V22H30.625V7.25Z" fill="#BBBEC3"/>
</svg>
