<svg width="24" height="24" viewBox="0 0 24 24" fill="none" xmlns="http://www.w3.org/2000/svg">
<g clip-path="url(#clip0_1900_20027)">
<path d="M3.75 20C2.7835 20 2 19.2165 2 18.25L2 4.75C2 3.7835 2.7835 3 3.75 3H7.72108C8.30015 3 8.84173 3.28645 9.16762 3.76512L10.5723 5.8282C10.6188 5.89658 10.6962 5.9375 10.7789 5.9375H18.25C19.2165 5.9375 20 6.721 20 7.6875V9.5" stroke="#222631" stroke-width="1.8"/>
<path d="M6.16161 9.61899C6.32114 9.18693 6.73295 8.9 7.19352 8.9H22.1296C22.8952 8.9 23.4267 9.66275 23.1615 10.381L19.8384 19.381C19.6789 19.8131 19.2671 20.1 18.8065 20.1H3.87044C3.10478 20.1 2.57333 19.3373 2.83853 18.619L6.16161 9.61899Z" stroke="#222631" stroke-width="1.8"/>
</g>
<defs>
<clipPath id="clip0_1900_20027">
<rect width="24" height="24" fill="white"/>
</clipPath>
</defs>
</svg>
