<svg width="17" height="16" viewBox="0 0 17 16" fill="none" xmlns="http://www.w3.org/2000/svg">
<g clip-path="url(#clip0_1920_28639)">
<path d="M7.99004 10.9963C6.60254 10.9963 5.52255 9.92674 5.53005 7.99267C5.52255 6.03663 6.64754 5.00366 7.99004 5.00366C8.95753 5.00366 9.44503 5.57509 9.64003 5.98535H9.71503V5.13553H11.17V9.04762C11.185 9.54579 11.3875 9.78755 11.8 9.78022C12.565 9.78755 13.06 8.92308 13.06 7.61172C13.075 5.06227 11.2375 3.39194 8.50003 3.39194C5.71005 3.39927 3.92506 5.36996 3.92506 7.99267C3.92506 10.8278 5.48505 12.63 8.45503 12.6081C9.52003 12.6007 10.3225 12.5128 11.17 12.3004V13.6484C10.375 13.8681 9.45253 14 8.45503 14C4.69005 14 2.49257 11.6557 2.50007 7.99267C2.48507 4.52015 4.97505 2 8.50003 2C12.0475 2 14.5 4.35897 14.5 7.56777C14.4925 9.79487 13.3375 11.0696 11.665 11.0696C10.66 11.0623 9.91753 10.6007 9.76753 9.94139H9.70003C9.49753 10.3516 9.00253 10.9963 7.99004 10.9963ZM7.16504 7.99267C7.15754 8.95971 7.62254 9.65568 8.44003 9.64835C9.28753 9.65568 9.73753 8.99634 9.74503 7.99267C9.73753 6.98169 9.29503 6.34432 8.44003 6.337C7.61504 6.34432 7.15754 7.02564 7.16504 7.99267Z" fill="#222631"/>
</g>
<defs>
<clipPath id="clip0_1920_28639">
<rect width="16" height="16" fill="white" transform="translate(0.5)"/>
</clipPath>
</defs>
</svg>
