<svg width="24" height="24" viewBox="0 0 24 24" fill="none" xmlns="http://www.w3.org/2000/svg">
<g clip-path="url(#clip0_1951_2695)">
<path d="M20 10L4 10C3.45 10 3 10.45 3 11L3 13C3 13.55 3.45 14 4 14L20 14C20.55 14 21 13.55 21 13L21 11C21 10.45 20.55 10 20 10ZM20 3L4 3C3.45 3 3 3.45 3 4L3 6C3 6.55 3.45 7 4 7L20 7C20.55 7 21 6.55 21 6L21 4C21 3.45 20.55 3 20 3ZM21 20L21 18C21 17.45 20.55 17 20 17L4 17C3.45 17 3 17.45 3 18L3 20C3 20.55 3.45 21 4 21L20 21C20.55 21 21 20.55 21 20Z" fill="#BBBEC3"/>
</g>
<defs>
<clipPath id="clip0_1951_2695">
<rect width="24" height="24" fill="white"/>
</clipPath>
</defs>
</svg>
