<svg width="32" height="32" viewBox="0 0 32 32" fill="none" xmlns="http://www.w3.org/2000/svg">
<g id="resize">
<g id="Group 2999">
<g id="Group 2998">
<path id="Subtract" fill-rule="evenodd" clip-rule="evenodd" d="M16.4736 8.84614H12.2352C10.6125 8.84614 9.29707 10.1616 9.29707 11.7843V20.2609C9.29707 21.8836 10.6125 23.1991 12.2352 23.1991H20.7119C22.3346 23.1991 23.65 21.8836 23.65 20.2609V16.0226H24.95V20.2609C24.95 22.6016 23.0525 24.4991 20.7119 24.4991H12.2352C9.89457 24.4991 7.99707 22.6016 7.99707 20.2609V11.7843C7.99707 9.44364 9.89457 7.54614 12.2352 7.54614H16.4736V8.84614Z" fill="#292929"/>
</g>
<path id="Union" fill-rule="evenodd" clip-rule="evenodd" d="M16.8969 14.7167L22.7953 8.81821L19.2194 8.81821V7.49994L24.8965 7.49994L24.8965 13.177H23.6778V9.54174L17.6204 15.5991L21.2031 15.5991V16.8704L15.5261 16.8704V11.1933H16.8969L16.8969 14.7167Z" fill="#292929"/>
</g>
</g>
</svg>
