<svg width="300" height="300" viewBox="0 0 300 300" fill="none" xmlns="http://www.w3.org/2000/svg">
<path d="M277.333 9.33334L290.667 22.6667M277.333 22.6667L290.667 9.33334" stroke="#292929" stroke-width="1.33333" stroke-linecap="round" stroke-linejoin="round"/>
<path fill-rule="evenodd" clip-rule="evenodd" d="M3 4C3 2.89543 3.89543 2 5 2H19C20.1046 2 21 2.89543 21 4V21C21 22.1046 20.1046 23 19 23H15V19C15 18.4477 14.5523 18 14 18H10C9.44772 18 9 18.4477 9 19V23H5C3.89543 23 3 22.1046 3 21V4ZM6.5 5C6.22386 5 6 5.22386 6 5.5V6.5C6 6.77614 6.22386 7 6.5 7H7.5C7.77614 7 8 6.77614 8 6.5V5.5C8 5.22386 7.77614 5 7.5 5H6.5ZM6 9.5C6 9.22386 6.22386 9 6.5 9H7.5C7.77614 9 8 9.22386 8 9.5V10.5C8 10.7761 7.77614 11 7.5 11H6.5C6.22386 11 6 10.7761 6 10.5V9.5ZM6.5 13C6.22386 13 6 13.2239 6 13.5V14.5C6 14.7761 6.22386 15 6.5 15H7.5C7.77614 15 8 14.7761 8 14.5V13.5C8 13.2239 7.77614 13 7.5 13H6.5ZM16 5.5C16 5.22386 16.2239 5 16.5 5H17.5C17.7761 5 18 5.22386 18 5.5V6.5C18 6.77614 17.7761 7 17.5 7H16.5C16.2239 7 16 6.77614 16 6.5V5.5ZM16.5 9C16.2239 9 16 9.22386 16 9.5V10.5C16 10.7761 16.2239 11 16.5 11H17.5C17.7761 11 18 10.7761 18 10.5V9.5C18 9.22386 17.7761 9 17.5 9H16.5ZM16 13.5C16 13.2239 16.2239 13 16.5 13H17.5C17.7761 13 18 13.2239 18 13.5V14.5C18 14.7761 17.7761 15 17.5 15H16.5C16.2239 15 16 14.7761 16 14.5V13.5ZM11.5 5C11.2239 5 11 5.22386 11 5.5V6.5C11 6.77614 11.2239 7 11.5 7H12.5C12.7761 7 13 6.77614 13 6.5V5.5C13 5.22386 12.7761 5 12.5 5H11.5ZM11 9.5C11 9.22386 11.2239 9 11.5 9H12.5C12.7761 9 13 9.22386 13 9.5V10.5C13 10.7761 12.7761 11 12.5 11H11.5C11.2239 11 11 10.7761 11 10.5V9.5ZM11.5 13C11.2239 13 11 13.2239 11 13.5V14.5C11 14.7761 11.2239 15 11.5 15H12.5C12.7761 15 13 14.7761 13 14.5V13.5C13 13.2239 12.7761 13 12.5 13H11.5Z" fill="#222631"/>
<path d="M150 22.5714C148.895 22.5714 148 21.676 148 20.5714V4C148 2.89543 148.895 2 150 2H158.286L164 7.71429V20.5714C164 21.676 163.105 22.5714 162 22.5714H150Z" fill="#222631"/>
<rect x="160" y="7.28571" width="1" height="8" rx="0.5" transform="rotate(90 160 7.28571)" fill="#F5F5F5"/>
<rect x="160" y="10.2857" width="1" height="8" rx="0.5" transform="rotate(90 160 10.2857)" fill="#F5F5F5"/>
<rect x="157" y="13.2857" width="1" height="5" rx="0.5" transform="rotate(90 157 13.2857)" fill="#F5F5F5"/>
<path d="M158.286 6.71428V2L164 7.71429H159.286C158.733 7.71429 158.286 7.26657 158.286 6.71428Z" fill="#4F5463"/>
<path fill-rule="evenodd" clip-rule="evenodd" d="M26.4715 7.39453C26.6956 6.92991 26.9541 6.4804 27.246 6.05024C27.77 5.27811 28.8113 5.13418 29.6194 5.60075L30.6484 6.1948C31.9817 6.9646 33.6484 6.00235 33.6484 4.46275L33.6484 3.27464C33.6484 2.3415 34.2937 1.51166 35.2243 1.44395C35.7428 1.40623 36.2614 1.40707 36.7758 1.44535C37.7064 1.51459 38.3516 2.34437 38.3516 3.27753L38.3516 4.46278C38.3516 6.00238 40.0183 6.96463 41.3516 6.19483L42.3784 5.60202C43.1873 5.13499 44.2294 5.27989 44.7535 6.05305C44.8972 6.26502 45.0343 6.48369 45.1643 6.70895C45.2944 6.93419 45.4152 7.16222 45.5269 7.39261C45.9345 8.23307 45.5389 9.20804 44.73 9.67507L43.7032 10.2679C42.3698 11.0377 42.3698 12.9622 43.7032 13.732L44.7297 14.3247C45.5378 14.7912 45.9338 15.7649 45.5285 16.6055C45.3044 17.0701 45.0459 17.5196 44.754 17.9497C44.23 18.7219 43.1887 18.8658 42.3806 18.3992L41.3516 17.8052C40.0183 17.0354 38.3516 17.9976 38.3516 19.5372V20.7253C38.3516 21.6585 37.7063 22.4883 36.7756 22.556C36.2572 22.5938 35.7386 22.5929 35.2242 22.5546C34.2936 22.4854 33.6484 21.6556 33.6484 20.7224V19.5371C33.6484 17.9975 31.9817 17.0353 30.6484 17.8051L29.6216 18.3979C28.8127 18.8649 27.7705 18.72 27.2464 17.9469C27.1028 17.7349 26.9657 17.5163 26.8357 17.291C26.7056 17.0658 26.5848 16.8377 26.473 16.6073C26.0655 15.7668 26.4611 14.7919 27.27 14.3249L28.2968 13.732C29.6301 12.9622 29.6301 11.0377 28.2968 10.2679L27.2703 9.67533C26.4622 9.20875 26.0662 8.23506 26.4715 7.39453ZM36 15C37.6569 15 39 13.6569 39 12C39 10.3431 37.6569 9 36 9C34.3431 9 33 10.3431 33 12C33 13.6569 34.3431 15 36 15Z" fill="#222631"/>
<path fill-rule="evenodd" clip-rule="evenodd" d="M50.7506 8.39951C50.2762 8.77906 50 9.35368 50 9.96125V21C50 22.1046 50.8954 23 52 23L57 23V16C57 15.4477 57.4477 15 58 15H62C62.5523 15 63 15.4477 63 16V23L68 23C69.1046 23 70 22.1046 70 21V9.96125C70 9.35368 69.7238 8.77906 69.2494 8.39951L61.2494 1.99951C60.519 1.41516 59.481 1.41516 58.7506 1.99951L50.7506 8.39951Z" fill="#222631"/>
<path fill-rule="evenodd" clip-rule="evenodd" d="M95 12C95 18.0751 90.0751 23 84 23C77.9249 23 73 18.0751 73 12C73 5.92487 77.9249 1 84 1C90.0751 1 95 5.92487 95 12ZM83 7.5C83 7.22386 83.2239 7 83.5 7H84.5C84.7761 7 85 7.22386 85 7.5V11H88.5C88.7761 11 89 11.2239 89 11.5V12.5C89 12.7761 88.7761 13 88.5 13H85V16.5C85 16.7761 84.7761 17 84.5 17H83.5C83.2239 17 83 16.7761 83 16.5V13H79.5C79.2239 13 79 12.7761 79 12.5V11.5C79 11.2239 79.2239 11 79.5 11H83V7.5Z" fill="#222631"/>
<path fill-rule="evenodd" clip-rule="evenodd" d="M100 2C98.8954 2 98 2.89543 98 4V20C98 21.1046 98.8954 22 100 22H116C117.105 22 118 21.1046 118 20V4C118 2.89543 117.105 2 116 2H100ZM112 6.78571C112 6.50956 111.776 6.28571 111.5 6.28571L104.5 6.28571C104.224 6.28571 104 6.50956 104 6.78571C104 7.06185 104.224 7.28571 104.5 7.28571L111.5 7.28571C111.776 7.28571 112 7.06185 112 6.78571Z" fill="#222631"/>
<mask id="path-12-inside-1_57_69" fill="white">
<path fill-rule="evenodd" clip-rule="evenodd" d="M132 23C138.075 23 143 18.0751 143 12C143 5.92487 138.075 1 132 1C125.925 1 121 5.92487 121 12C121 18.0751 125.925 23 132 23ZM131.078 10.0352V17.459H132.733V10.0352H131.078ZM131.906 7C131.408 7.00684 131 7.46484 131 8.03906C131 8.59961 131.408 9.06445 131.906 9.06445C132.397 9.06445 132.806 8.59961 132.8 8.03906C132.806 7.46484 132.397 7.00684 131.906 7Z"/>
</mask>
<path fill-rule="evenodd" clip-rule="evenodd" d="M132 23C138.075 23 143 18.0751 143 12C143 5.92487 138.075 1 132 1C125.925 1 121 5.92487 121 12C121 18.0751 125.925 23 132 23ZM131.078 10.0352V17.459H132.733V10.0352H131.078ZM131.906 7C131.408 7.00684 131 7.46484 131 8.03906C131 8.59961 131.408 9.06445 131.906 9.06445C132.397 9.06445 132.806 8.59961 132.8 8.03906C132.806 7.46484 132.397 7.00684 131.906 7Z" fill="#222631"/>
<path d="M131.078 17.459H129.078V19.459H131.078V17.459ZM131.078 10.0352V8.03516H129.078V10.0352H131.078ZM132.733 17.459V19.459H134.733V17.459H132.733ZM132.733 10.0352H134.733V8.03516H132.733V10.0352ZM131.906 7L131.933 5.00019L131.906 4.99981L131.878 5.00019L131.906 7ZM132.8 8.03906L130.8 8.01959L130.8 8.0393L130.8 8.05901L132.8 8.03906ZM141 12C141 16.9706 136.971 21 132 21V25C139.18 25 145 19.1797 145 12H141ZM132 3C136.971 3 141 7.02944 141 12H145C145 4.8203 139.18 -1 132 -1V3ZM123 12C123 7.02944 127.029 3 132 3V-1C124.82 -1 119 4.8203 119 12H123ZM132 21C127.029 21 123 16.9706 123 12H119C119 19.1797 124.82 25 132 25V21ZM133.078 17.459V10.0352H129.078V17.459H133.078ZM132.733 15.459H131.078V19.459H132.733V15.459ZM130.733 10.0352V17.459H134.733V10.0352H130.733ZM131.078 12.0352H132.733V8.03516H131.078V12.0352ZM133 8.03906C133 8.22552 132.933 8.43934 132.77 8.62587C132.604 8.81414 132.314 8.99458 131.933 8.99981L131.878 5.00019C130.075 5.02496 129 6.59571 129 8.03906H133ZM131.906 7.06445C132.306 7.06445 132.603 7.25446 132.767 7.43945C132.927 7.62182 133 7.83684 133 8.03906H129C129 9.45965 130.074 11.0645 131.906 11.0645V7.06445ZM130.8 8.05901C130.798 7.85046 130.872 7.63074 131.033 7.44582C131.196 7.25975 131.497 7.06445 131.906 7.06445V11.0645C133.738 11.0645 134.814 9.44931 134.8 8.01912L130.8 8.05901ZM131.878 8.99981C131.488 8.9944 131.195 8.80893 131.03 8.61949C130.866 8.43035 130.798 8.21203 130.8 8.01959L134.8 8.05853C134.814 6.60593 133.737 5.02526 131.933 5.00019L131.878 8.99981Z" fill="#222631" mask="url(#path-12-inside-1_57_69)"/>
<path d="M174 22.5714C172.895 22.5714 172 21.676 172 20.5714V4C172 2.89543 172.895 2 174 2H182.286L188 7.71429V20.5714C188 21.676 187.105 22.5714 186 22.5714H174Z" fill="#029ED0"/>
<rect x="184" y="7.28571" width="1" height="8" rx="0.5" transform="rotate(90 184 7.28571)" fill="#F5F5F5"/>
<rect x="184" y="10.2857" width="1" height="8" rx="0.5" transform="rotate(90 184 10.2857)" fill="#F5F5F5"/>
<rect x="181" y="13.2857" width="1" height="5" rx="0.5" transform="rotate(90 181 13.2857)" fill="#F5F5F5"/>
<path d="M182.286 6.71428V2L188 7.71429H183.286C182.733 7.71429 182.286 7.26657 182.286 6.71428Z" fill="#77D2FF"/>
<path d="M19 32.5L12 39.5L5 32.5" stroke="#222631" stroke-width="2" stroke-linecap="square"/>
<rect x="51" y="27" width="18" height="18" rx="4" fill="#FFDEDE"/>
<path d="M58.5374 41C58.1103 41 57.7473 40.86 57.4484 40.58C57.1495 40.2867 57 39.94 57 39.54V37.88H58.9858V38.4C58.9858 38.6 59.0641 38.7733 59.2206 38.92C59.3772 39.0533 59.5623 39.12 59.7758 39.12H60.2242C60.4377 39.12 60.6157 39.0533 60.758 38.92C60.9146 38.7733 60.9929 38.6 60.9929 38.4V37.66C60.9929 37.46 60.9146 37.2933 60.758 37.16C60.6157 37.0133 60.4377 36.94 60.2242 36.94H58.5374C58.1103 36.94 57.7473 36.8 57.4484 36.52C57.1495 36.2267 57 35.88 57 35.48V32.46C57 32.06 57.1495 31.72 57.4484 31.44C57.7473 31.1467 58.1103 31 58.5374 31H61.4626C61.8897 31 62.2527 31.1467 62.5516 31.44C62.8505 31.72 63 32.06 63 32.46V34.12H60.9929V33.6C60.9929 33.4 60.9146 33.2333 60.758 33.1C60.6157 32.9533 60.4377 32.88 60.2242 32.88H59.7758C59.5623 32.88 59.3772 32.9533 59.2206 33.1C59.0641 33.2333 58.9858 33.4 58.9858 33.6V34.34C58.9858 34.54 59.0641 34.7133 59.2206 34.86C59.3772 34.9933 59.5623 35.06 59.7758 35.06H61.4626C61.8897 35.06 62.2527 35.2067 62.5516 35.5C62.8505 35.78 63 36.12 63 36.52V39.62C62.9858 39.9933 62.8292 40.32 62.5302 40.6C62.2313 40.8667 61.8754 41 61.4626 41H58.5374Z" fill="#FF6060"/>
<path d="M39.5 43L32.5 36L39.5 29" stroke="white" stroke-width="2" stroke-linecap="square"/>
<path d="M79 35.2667L83.3421 39L90 32" stroke="white" stroke-width="1.6"/>
<circle cx="132" cy="36" r="11.2" stroke="#B8BEC4" stroke-width="1.6"/>
<circle cx="132" cy="36" r="6" transform="rotate(180 132 36)" fill="#B8BEC4"/>
<path d="M59.6068 65.7844L53.164 57.2565C52.8137 56.7928 53.0618 56 53.5572 56L66.4428 56C66.9382 56 67.1863 56.7928 66.836 57.2565L60.3932 65.7844C60.176 66.0719 59.824 66.0719 59.6068 65.7844Z" fill="#222631"/>
<path d="M77 58.5294L82.7692 65L92 55" stroke="#029ED0" stroke-width="2" stroke-linecap="square"/>
<rect x="133.828" y="54.7574" width="2" height="10" rx="0.5" transform="rotate(45 133.828 54.7574)" fill="#F5F5F5"/>
<rect x="135.243" y="61.8284" width="2" height="10" rx="0.5" transform="rotate(135 135.243 61.8284)" fill="#F5F5F5"/>
<path d="M113.784 60.3932L105.257 66.836C104.793 67.1863 104 66.9382 104 66.4428L104 53.5572C104 53.0618 104.793 52.8137 105.257 53.164L113.784 59.6068C114.072 59.824 114.072 60.176 113.784 60.3932Z" fill="#353D50"/>
<rect x="174" y="54" width="2" height="10" rx="0.5" fill="#F5F5F5"/>
<rect x="180" y="58" width="2" height="10" rx="0.5" transform="rotate(90 180 58)" fill="#F5F5F5"/>
<rect x="158" y="58" width="2" height="10" rx="0.5" transform="rotate(90 158 58)" fill="#F5F5F5"/>
<g clip-path="url(#clip0_57_69)">
<path d="M4.5 191.21L7.17857 194L12 189" stroke="white" stroke-width="1.5" stroke-linecap="square"/>
</g>
<g clip-path="url(#clip1_57_69)">
<path fill-rule="evenodd" clip-rule="evenodd" d="M25.7758 202L19 202V214H29.1538V205.45L25.7758 202Z" stroke="#222631" stroke-width="1.5" stroke-linecap="square"/>
<path d="M25.4615 202V205.692H28.2308" stroke="#222631" stroke-width="1.5" stroke-linecap="square"/>
</g>
<g clip-path="url(#clip2_57_69)">
<path d="M46 208H34" stroke="#222631" stroke-width="1.5" stroke-linecap="square" stroke-linejoin="round"/>
<path d="M40 214L40 202" stroke="#222631" stroke-width="1.5" stroke-linecap="square" stroke-linejoin="round"/>
</g>
<g clip-path="url(#clip3_57_69)">
<path d="M50 210V214H62V210" stroke="#222631" stroke-width="1.5" stroke-linecap="square"/>
<path d="M59 207L56 210L53 207" stroke="#222631" stroke-width="1.5" stroke-linecap="square"/>
<line x1="56" y1="201" x2="56" y2="209" stroke="#222631" stroke-width="1.5"/>
</g>
<g clip-path="url(#clip4_57_69)">
<path d="M73 207V211" stroke="#222631" stroke-width="1.5" stroke-linecap="square" stroke-linejoin="round"/>
<path d="M71 207V211" stroke="#222631" stroke-width="1.5" stroke-linecap="square" stroke-linejoin="round"/>
<path d="M68 205V212C68 213.105 68.8954 214 70 214H74C75.1046 214 76 213.105 76 212V205" stroke="#222631" stroke-width="1.5" stroke-linecap="square" stroke-linejoin="round"/>
<path d="M66 204.667H78" stroke="#222631" stroke-width="1.5" stroke-linecap="square" stroke-linejoin="round"/>
<path d="M69 204L70.2 202H73.8L75 204" stroke="#222631" stroke-width="1.5" stroke-linecap="square" stroke-linejoin="round"/>
</g>
<g clip-path="url(#clip5_57_69)">
<path d="M87.7753 210.871L84.0937 205.754C83.8935 205.476 84.0353 205 84.3184 205L91.6816 205C91.9647 205 92.1065 205.476 91.9063 205.754L88.2247 210.871C88.1006 211.043 87.8994 211.043 87.7753 210.871Z" fill="#222631"/>
</g>
<g clip-path="url(#clip6_57_69)">
<circle cx="8" cy="224" r="7.25" transform="rotate(-180 8 224)" stroke="#FF6060" stroke-width="1.5"/>
<path d="M8.67035 220.03L8.67035 225.429L7.467 225.429L7.467 220.03L8.67035 220.03ZM8.72726 226.881C8.72726 227.298 8.43049 227.631 8.06867 227.636C7.71092 227.631 7.41415 227.298 7.41821 226.881C7.41415 226.473 7.71092 226.135 8.06867 226.135C8.43049 226.135 8.72726 226.473 8.72726 226.881Z" fill="#FF6060"/>
</g>
<g clip-path="url(#clip7_57_69)">
<path d="M114.23 209.752C114.604 210.972 115.357 212.041 116.379 212.805C117.402 213.569 118.64 213.988 119.917 214.001C121.393 214.019 122.824 213.494 123.937 212.524C125.051 211.555 125.769 210.21 125.954 208.745C126.136 207.281 125.773 205.8 124.932 204.587C124.092 203.374 122.834 202.513 121.399 202.169C119.963 201.821 118.45 202.014 117.148 202.71C115.845 203.406 114.844 204.557 114.334 205.943M114 202.857V206.286H117.429" stroke="#222631" stroke-width="1.5" stroke-linejoin="round"/>
</g>
<g clip-path="url(#clip8_57_69)">
<path d="M104.219 202.309C104.473 201.948 104.972 201.86 105.334 202.113L109.702 205.172C110.064 205.425 110.152 205.924 109.899 206.286L105.157 213.058C105.034 213.234 104.846 213.353 104.635 213.388L100.77 214.041C100.327 214.116 99.9085 213.81 99.8453 213.364L99.3224 209.679L98.7944 209.754L99.3224 209.679C99.2939 209.478 99.3428 209.274 99.4592 209.108L104.219 202.309Z" fill="#B8BEC3" stroke="#B8BEC3" stroke-width="1.06667"/>
<path d="M102.908 203.252L109.735 208.032" stroke="white" stroke-width="1.06667"/>
</g>
<g clip-path="url(#clip9_57_69)">
<path d="M141.458 203.374L136.958 214.874L135.236 209.596L129.958 207.874L141.458 203.374Z" stroke="#222631" stroke-width="1.40625" stroke-linejoin="round"/>
<line x1="140.489" y1="204.506" x2="135.479" y2="209.346" stroke="#222631" stroke-width="1.40625"/>
</g>
<path fill-rule="evenodd" clip-rule="evenodd" d="M145.648 204.93C145.797 204.62 145.969 204.32 146.164 204.033C146.513 203.519 147.208 203.423 147.746 203.734L148.432 204.13C149.321 204.643 150.432 204.002 150.432 202.975L150.432 202.183C150.432 201.561 150.862 201.008 151.483 200.963C151.829 200.937 152.174 200.938 152.517 200.964C153.138 201.01 153.568 201.563 153.568 202.185V202.975C153.568 204.002 154.679 204.643 155.568 204.13L156.252 203.735C156.792 203.423 157.486 203.52 157.836 204.035C157.931 204.177 158.023 204.322 158.11 204.473C158.196 204.623 158.277 204.775 158.351 204.928C158.623 205.489 158.359 206.139 157.82 206.45L157.135 206.845C156.247 207.358 156.247 208.641 157.135 209.155L157.82 209.55C158.359 209.861 158.623 210.51 158.352 211.07C158.203 211.38 158.031 211.68 157.836 211.966C157.487 212.481 156.792 212.577 156.254 212.266L155.568 211.87C154.679 211.357 153.568 211.998 153.568 213.025L153.568 213.817C153.568 214.439 153.138 214.992 152.517 215.037C152.171 215.063 151.826 215.062 151.483 215.036C150.862 214.99 150.432 214.437 150.432 213.815V213.025C150.432 211.998 149.321 211.357 148.432 211.87L147.748 212.265C147.208 212.577 146.514 212.48 146.164 211.965C146.069 211.823 145.977 211.678 145.89 211.527C145.804 211.377 145.723 211.225 145.649 211.072C145.377 210.511 145.641 209.861 146.18 209.55L146.865 209.155C147.753 208.642 147.753 207.359 146.865 206.845L146.18 206.45C145.641 206.139 145.377 205.49 145.648 204.93ZM152 210C153.105 210 154 209.105 154 208C154 206.895 153.105 206 152 206C150.895 206 150 206.895 150 208C150 209.105 150.895 210 152 210Z" fill="#BBBEC3"/>
<g clip-path="url(#clip10_57_69)">
<path d="M162 210V214H174V210" stroke="#222631" stroke-width="1.5" stroke-linecap="square"/>
<path d="M165 204L168 201L171 204" stroke="#222631" stroke-width="1.5" stroke-linecap="square"/>
<line x1="168" y1="210" x2="168" y2="202" stroke="#222631" stroke-width="1.5"/>
</g>
<circle cx="40" cy="192" r="7.46667" stroke="#BBBEC3" stroke-width="1.06667"/>
<circle cx="40" cy="192" r="4" transform="rotate(180 40 192)" fill="#BBBEC3"/>
<path d="M20.6667 191.511L23.5614 194L28 189.333" stroke="#ACACAC" stroke-width="1.06667"/>
<g clip-path="url(#clip11_57_69)">
<rect x="2.00001" y="204" width="9" height="11" stroke="#222631" stroke-width="1.4" stroke-linecap="square"/>
<path d="M11.3 212H14V201H5.00001V203.073" stroke="#222631" stroke-width="1.4" stroke-linecap="square"/>
</g>
<line x1="16.2334" y1="87.7139" x2="20.7071" y2="92.1876" stroke="#222631" stroke-width="2"/>
<circle cx="11.0526" cy="83.0526" r="7.05263" stroke="#222631" stroke-width="2"/>
<path d="M36.9783 89.0366L36.5 88.7761L36.0217 89.0366L30 92.3166V76C30 75.4477 30.4477 75 31 75H42C42.5523 75 43 75.4477 43 76V92.3166L36.9783 89.0366Z" stroke="#222631" stroke-width="2"/>
<path d="M62 83V89" stroke="#222631" stroke-width="2" stroke-linecap="square" stroke-linejoin="round"/>
<path d="M58 83V89" stroke="#222631" stroke-width="2" stroke-linecap="square" stroke-linejoin="round"/>
<path d="M54 79V91C54 92.1046 54.8954 93 56 93H64C65.1046 93 66 92.1046 66 91V79" stroke="#222631" stroke-width="2" stroke-linecap="round" stroke-linejoin="round"/>
<path d="M52 79H68" stroke="#222631" stroke-width="2" stroke-linecap="square" stroke-linejoin="round"/>
<path d="M55 79L57 75H63L65 79" stroke="#222631" stroke-width="2" stroke-linecap="round" stroke-linejoin="round"/>
<path d="M77 82.5294L82.7692 89L92 79" stroke="#222631" stroke-width="2" stroke-linecap="square"/>
<path fill-rule="evenodd" clip-rule="evenodd" d="M104 77.6V79H105.6V77.6H111V79H112.6V77.6H115C115.773 77.6 116.4 78.2268 116.4 79V81.4H100.6V79C100.6 78.2268 101.227 77.6 102 77.6H104ZM99 83V81.4V79C99 77.3431 100.343 76 102 76H104V75H105.6V76H111V75H112.6V76H115C116.657 76 118 77.3431 118 79V81.4V83V90C118 91.6569 116.657 93 115 93H102C100.343 93 99 91.6569 99 90V83ZM116.4 83V90C116.4 90.7732 115.773 91.4 115 91.4H102C101.227 91.4 100.6 90.7732 100.6 90V83H116.4Z" fill="#B8BEC4"/>
<path fill-rule="evenodd" clip-rule="evenodd" d="M140.4 84C140.4 88.6392 136.639 92.4 132 92.4C127.361 92.4 123.6 88.6392 123.6 84C123.6 79.3608 127.361 75.6 132 75.6C136.639 75.6 140.4 79.3608 140.4 84ZM142 84C142 89.5228 137.523 94 132 94C126.477 94 122 89.5228 122 84C122 78.4772 126.477 74 132 74C137.523 74 142 78.4772 142 84ZM132.8 80H131.2V85.1099L136.253 83.4256L135.747 81.9077L132.8 82.8901V80Z" fill="#B8BEC4"/>
<path d="M3.75 99C2.7835 99 2 99.7835 2 100.75V115.25C2 116.216 2.7835 117 3.75 117H20.25C21.2165 117 22 116.216 22 115.25V103.688C22 102.721 21.2165 101.938 20.25 101.938H11.7789C11.6962 101.938 11.6188 101.897 11.5723 101.828L10.1676 99.7651C9.84173 99.2865 9.30015 99 8.72108 99H3.75Z" fill="#222631"/>
<path fill-rule="evenodd" clip-rule="evenodd" d="M41.6643 99.2527C41.4813 99.09 41.2449 99 41 99H31C30.7348 99 30.4804 99.1054 30.2929 99.2929C30.1053 99.4804 30 99.7348 30 100L30.001 102.17C29.5624 102.015 29.0937 101.964 28.6321 102.021C28.1704 102.078 27.7283 102.242 27.3408 102.5C26.9534 102.757 26.631 103.101 26.3994 103.504C26.1677 103.908 26.033 104.36 26.006 104.824L26.001 105L26.004 105.176C26.0311 105.64 26.1659 106.092 26.3977 106.496C26.6295 106.899 26.9519 107.243 27.3395 107.5C27.7271 107.758 28.1693 107.921 28.631 107.978C29.0927 108.035 29.5614 107.984 30 107.829V108L30.004 108.225C30.0559 109.603 30.5809 110.922 31.4909 111.958C32.4008 112.995 33.64 113.687 35 113.917V116H32H31V118H32H40H41V116H40H37V113.917C38.398 113.68 39.6672 112.956 40.5824 111.873C41.4976 110.79 41.9998 109.418 42 108V107.829C42.4524 107.988 42.9364 108.037 43.4115 107.971C43.8866 107.904 44.3388 107.725 44.7303 107.448C45.1218 107.171 45.4411 106.804 45.6615 106.378C45.8819 105.952 45.9969 105.479 45.9969 105C45.9969 104.52 45.8819 104.047 45.6615 103.621C45.4411 103.195 45.1218 102.828 44.7303 102.551C44.3388 102.274 43.8866 102.095 43.4115 102.028C42.9364 101.962 42.4524 102.011 42 102.17V100L41.993 99.883C41.9643 99.6397 41.8474 99.4155 41.6643 99.2527ZM28.2929 104.293C28.4804 104.105 28.7348 104 29 104C29.2652 104 29.5195 104.105 29.7071 104.293C29.8946 104.48 30 104.735 30 105C30 105.265 29.8946 105.52 29.7071 105.707C29.5195 105.895 29.2652 106 29 106C28.7348 106 28.4804 105.895 28.2929 105.707C28.1053 105.52 28 105.265 28 105C28 104.735 28.1053 104.48 28.2929 104.293ZM42.2929 104.293C42.4804 104.105 42.7348 104 43 104C43.2652 104 43.5195 104.105 43.7071 104.293C43.8946 104.48 44 104.735 44 105C44 105.265 43.8946 105.52 43.7071 105.707C43.5195 105.895 43.2652 106 43 106C42.7348 106 42.4804 105.895 42.2929 105.707C42.1053 105.52 42 105.265 42 105C42 104.735 42.1053 104.48 42.2929 104.293Z" fill="#222631"/>
<path d="M60 112L60 105" stroke="#222631" stroke-width="4" stroke-linecap="square" stroke-linejoin="round"/>
<path d="M66.5 112L66.5 101" stroke="#222631" stroke-width="4" stroke-linecap="square" stroke-linejoin="round"/>
<path d="M53.5 112L53.5 109" stroke="#222631" stroke-width="4" stroke-linecap="square" stroke-linejoin="round"/>
<rect x="50" y="116" width="20" height="2" fill="#222631"/>
<path fill-rule="evenodd" clip-rule="evenodd" d="M74.4715 103.395C74.6956 102.93 74.9541 102.48 75.246 102.05C75.77 101.278 76.8113 101.134 77.6194 101.601L78.6484 102.195C79.9817 102.965 81.6484 102.002 81.6484 100.463L81.6484 99.2746C81.6484 98.3415 82.2937 97.5117 83.2243 97.4439C83.7428 97.4062 84.2614 97.4071 84.7758 97.4453C85.7064 97.5146 86.3516 98.3444 86.3516 99.2775L86.3516 100.463C86.3516 102.002 88.0183 102.965 89.3516 102.195L90.3784 101.602C91.1873 101.135 92.2294 101.28 92.7535 102.053C92.8972 102.265 93.0343 102.484 93.1643 102.709C93.2944 102.934 93.4152 103.162 93.5269 103.393C93.9345 104.233 93.5389 105.208 92.73 105.675L91.7032 106.268C90.3698 107.038 90.3698 108.962 91.7032 109.732L92.7297 110.325C93.5378 110.791 93.9338 111.765 93.5285 112.605C93.3044 113.07 93.0459 113.52 92.754 113.95C92.23 114.722 91.1887 114.866 90.3806 114.399L89.3516 113.805C88.0183 113.035 86.3516 113.998 86.3516 115.537V116.725C86.3516 117.658 85.7063 118.488 84.7756 118.556C84.2572 118.594 83.7386 118.593 83.2242 118.555C82.2936 118.485 81.6484 117.656 81.6484 116.722V115.537C81.6484 113.998 79.9817 113.035 78.6484 113.805L77.6216 114.398C76.8127 114.865 75.7705 114.72 75.2464 113.947C75.1028 113.735 74.9657 113.516 74.8357 113.291C74.7056 113.066 74.5848 112.838 74.473 112.607C74.0655 111.767 74.4611 110.792 75.27 110.325L76.2968 109.732C77.6301 108.962 77.6301 107.038 76.2968 106.268L75.2703 105.675C74.4622 105.209 74.0662 104.235 74.4715 103.395ZM84 111C85.6569 111 87 109.657 87 108C87 106.343 85.6569 105 84 105C82.3431 105 81 106.343 81 108C81 109.657 82.3431 111 84 111Z" fill="#222631"/>
<path fill-rule="evenodd" clip-rule="evenodd" d="M162.937 75.8L152.869 85.8686L154 87L164.2 76.8V83H165.8V74.2H157V75.8L162.937 75.8ZM150 78.8C148.785 78.8 147.8 79.785 147.8 81V90C147.8 91.215 148.785 92.2 150 92.2H159C160.215 92.2 161.2 91.215 161.2 90V84.5073H162.8V90C162.8 92.0987 161.099 93.8 159 93.8H150C147.901 93.8 146.2 92.0987 146.2 90V81C146.2 78.9013 147.901 77.2 150 77.2H155.493V78.8H150Z" fill="#B8BEC4"/>
<path fill-rule="evenodd" clip-rule="evenodd" d="M110.818 98.75L100.575 98.75V117.25H115.925V104.068L110.818 98.75Z" stroke="#222631" stroke-width="1.5" stroke-linecap="square"/>
<path d="M110.343 99.3047V104.65H115.45" stroke="#222631" stroke-width="1.5" stroke-linecap="square"/>
<path d="M107.114 106.805V112.895" stroke="#222631" stroke-width="1.5" stroke-linecap="square"/>
<path d="M109.478 108.612L107.115 106.238L104.751 108.612" stroke="#222631" stroke-width="1.5" stroke-linecap="square"/>
<circle cx="175" cy="77" r="2" fill="#ACACAC"/>
<circle cx="175" cy="85" r="2" fill="#ACACAC"/>
<circle cx="175" cy="92" r="2" fill="#ACACAC"/>
<circle cx="186" cy="77" r="2" fill="#ACACAC"/>
<circle cx="186" cy="85" r="2" fill="#ACACAC"/>
<circle cx="186" cy="92" r="2" fill="#ACACAC"/>
<path d="M126.5 113H123C122.448 113 122 112.552 122 112V104C122 103.448 122.448 103 123 103H141C141.552 103 142 103.448 142 104V112C142 112.552 141.552 113 141 113H138.125" stroke="#222631" stroke-width="1.8"/>
<mask id="path-99-inside-2_57_69" fill="white">
<rect x="125" y="108" width="14" height="11" rx="1"/>
</mask>
<rect x="125" y="108" width="14" height="11" rx="1" stroke="#222631" stroke-width="3.6" mask="url(#path-99-inside-2_57_69)"/>
<rect x="138" y="105" width="2" height="1.5" fill="#222631"/>
<rect x="128" y="111" width="8" height="1.8" fill="#222631"/>
<rect x="128" y="114" width="8" height="1.8" fill="#222631"/>
<path d="M137 103V99C137 98.4477 136.552 98 136 98H128C127.448 98 127 98.4477 127 99V103" stroke="#222631" stroke-width="1.8"/>
<g clip-path="url(#clip12_57_69)">
<path d="M156.329 99.4642C156.709 98.9213 157.457 98.7894 158 99.1695L164.553 103.758C165.096 104.138 165.228 104.887 164.848 105.429L157.735 115.588C157.551 115.851 157.269 116.029 156.952 116.083L151.156 117.061C150.49 117.173 149.863 116.715 149.768 116.046L148.984 110.518C148.941 110.217 149.014 109.911 149.189 109.662L156.329 99.4642Z" fill="#B8BEC3" stroke="#B8BEC3" stroke-width="1.6"/>
<path d="M154.363 100.878L164.602 108.047" stroke="white" stroke-width="1.6"/>
</g>
<path d="M23.3017 228.413C20.6772 228.172 18.465 226.554 16.6667 223.556C18.6222 220.296 21.0667 218.667 24 218.667C26.9333 218.667 29.3778 220.296 31.3333 223.556C31.1524 223.857 30.9675 224.144 30.7793 224.417M26.4444 229.259L28.0741 230.889L31.3333 227.63M22.3704 223.556C22.3704 223.988 22.5421 224.402 22.8477 224.708C23.1533 225.013 23.5678 225.185 24 225.185C24.4322 225.185 24.8467 225.013 25.1523 224.708C25.4579 224.402 25.6296 223.988 25.6296 223.556C25.6296 223.123 25.4579 222.709 25.1523 222.403C24.8467 222.098 24.4322 221.926 24 221.926C23.5678 221.926 23.1533 222.098 22.8477 222.403C22.5421 222.709 22.3704 223.123 22.3704 223.556Z" stroke="#029ED0" stroke-width="1.33333" stroke-linecap="square" stroke-linejoin="round"/>
<path d="M46 221.63C44.4 223.408 42.4 224.296 40 224.296C37.6 224.296 35.6 223.408 34 221.63M34 225.63L35.6667 223.096M46 225.614L44.3387 223.096M38 226.963L38.3333 224.296M42 226.963L41.6667 224.296" stroke="#BBBEC3" stroke-width="1.33333" stroke-linecap="square" stroke-linejoin="round"/>
<path d="M295.683 38.5893L296.272 38L295.094 36.8215L294.504 37.4108L295.683 38.5893ZM294.504 37.4108L284.329 47.5861L285.507 48.7647L295.683 38.5893L294.504 37.4108Z" fill="#029ED0"/>
<path d="M286.329 37.7704L285.74 37.1811L284.561 38.3596L285.151 38.9489L286.329 37.7704ZM285.151 38.9489L295.326 49.1243L296.504 47.9458L286.329 37.7704L285.151 38.9489Z" fill="#029ED0"/>
<path d="M103 35.2667L107.342 39L114 32" stroke="#ACACAC" stroke-width="1.6"/>
<g clip-path="url(#clip13_57_69)">
<path d="M20 60H4" stroke="#222631" stroke-width="2" stroke-linecap="square" stroke-linejoin="round"/>
<path d="M12 68L12 52" stroke="#222631" stroke-width="2" stroke-linecap="square" stroke-linejoin="round"/>
</g>
<g clip-path="url(#clip14_57_69)">
<path d="M188.243 213.243L179.757 204.757" stroke="#029ED0" stroke-width="1.5" stroke-linecap="square" stroke-linejoin="round"/>
<path d="M179.757 213.243L188.243 204.757" stroke="#029ED0" stroke-width="1.5" stroke-linecap="square" stroke-linejoin="round"/>
</g>
<defs>
<clipPath id="clip0_57_69">
<rect width="16" height="16" fill="white" transform="translate(0 184)"/>
</clipPath>
<clipPath id="clip1_57_69">
<rect width="16" height="16" fill="white" transform="translate(16 200)"/>
</clipPath>
<clipPath id="clip2_57_69">
<rect width="16" height="16" fill="white" transform="translate(32 200)"/>
</clipPath>
<clipPath id="clip3_57_69">
<rect width="16" height="16" fill="white" transform="translate(48 200)"/>
</clipPath>
<clipPath id="clip4_57_69">
<rect width="16" height="16" fill="white" transform="translate(64 200)"/>
</clipPath>
<clipPath id="clip5_57_69">
<rect width="16" height="16" fill="white" transform="translate(80 200)"/>
</clipPath>
<clipPath id="clip6_57_69">
<rect width="16" height="16" fill="white" transform="translate(0 216)"/>
</clipPath>
<clipPath id="clip7_57_69">
<rect width="16" height="16" fill="white" transform="translate(112 200)"/>
</clipPath>
<clipPath id="clip8_57_69">
<rect width="16" height="16" fill="white" transform="translate(96 200)"/>
</clipPath>
<clipPath id="clip9_57_69">
<rect width="16" height="16" fill="white" transform="translate(128 200)"/>
</clipPath>
<clipPath id="clip10_57_69">
<rect width="16" height="16" fill="white" transform="translate(160 200)"/>
</clipPath>
<clipPath id="clip11_57_69">
<rect width="16" height="16" fill="white" transform="translate(0 200)"/>
</clipPath>
<clipPath id="clip12_57_69">
<rect width="24" height="24" fill="white" transform="translate(144 96)"/>
</clipPath>
<clipPath id="clip13_57_69">
<rect width="24" height="24" fill="white" transform="translate(0 48)"/>
</clipPath>
<clipPath id="clip14_57_69">
<rect width="16" height="16" fill="white" transform="translate(176 200)"/>
</clipPath>
</defs>
</svg>
